<svg width="23" height="18" viewBox="0 0 23 18" fill="none" xmlns="http://www.w3.org/2000/svg">
<mask id="path-1-inside-1_43_791" fill="white">
<path d="M3.27271 17.9999H19.6363C21.4437 17.9999 22.909 16.5347 22.909 14.7272V3.27271C22.909 1.46524 21.4437 0 19.6363 0H3.27271C1.46524 0 0 1.46524 0 3.27271V14.7272C0 16.5347 1.46524 17.9999 3.27271 17.9999ZM3.27271 3.27271H19.6363V14.7272H3.27271V3.27271Z"/>
</mask>
<path d="M3.27271 17.9999H19.6363C21.4437 17.9999 22.909 16.5347 22.909 14.7272V3.27271C22.909 1.46524 21.4437 0 19.6363 0H3.27271C1.46524 0 0 1.46524 0 3.27271V14.7272C0 16.5347 1.46524 17.9999 3.27271 17.9999ZM3.27271 3.27271H19.6363V14.7272H3.27271V3.27271Z" fill="white"/>
<path d="M3.27271 3.27271V-5.54639H-5.54639V3.27271H3.27271ZM19.6363 3.27271H28.4554V-5.54639H19.6363V3.27271ZM19.6363 14.7272V23.5463H28.4554V14.7272H19.6363ZM3.27271 14.7272H-5.54639V23.5463H3.27271V14.7272ZM3.27271 26.819H19.6363V9.18082H3.27271V26.819ZM19.6363 26.819C26.3144 26.819 31.7281 21.4053 31.7281 14.7272H14.0899C14.0899 11.664 16.5731 9.18082 19.6363 9.18082V26.819ZM31.7281 14.7272V3.27271H14.0899V14.7272H31.7281ZM31.7281 3.27271C31.7281 -3.40541 26.3144 -8.8191 19.6363 -8.8191V8.8191C16.5731 8.8191 14.0899 6.3359 14.0899 3.27271H31.7281ZM19.6363 -8.8191H3.27271V8.8191H19.6363V-8.8191ZM3.27271 -8.8191C-3.40541 -8.8191 -8.8191 -3.40541 -8.8191 3.27271H8.8191C8.8191 6.3359 6.33589 8.8191 3.27271 8.8191V-8.8191ZM-8.8191 3.27271V14.7272H8.8191V3.27271H-8.8191ZM-8.8191 14.7272C-8.8191 21.4053 -3.40541 26.819 3.27271 26.819V9.18082C6.33589 9.18082 8.8191 11.664 8.8191 14.7272H-8.8191ZM3.27271 12.0918H19.6363V-5.54639H3.27271V12.0918ZM10.8172 3.27271V14.7272H28.4554V3.27271H10.8172ZM19.6363 5.9081H3.27271V23.5463H19.6363V5.9081ZM12.0918 14.7272V3.27271H-5.54639V14.7272H12.0918Z" fill="#EB3F57" mask="url(#path-1-inside-1_43_791)"/>
</svg>
