<svg width="19" height="16" viewBox="0 0 19 16" fill="none" xmlns="http://www.w3.org/2000/svg">
<path d="M17.0665 3.82975C17.8102 3.27202 18.4795 2.60274 19 1.82192C18.3307 2.11937 17.5499 2.34247 16.7691 2.41683C17.5871 1.93346 18.182 1.18982 18.4795 0.260274C17.7358 0.706458 16.8806 1.0411 16.0254 1.22701C15.2818 0.446184 14.2779 0 13.1624 0C11.0059 0 9.25832 1.74755 9.25832 3.90411C9.25832 4.20157 9.2955 4.49902 9.36986 4.79648C6.13503 4.61057 3.23483 3.04892 1.30137 0.706458C0.966732 1.26419 0.780822 1.93346 0.780822 2.6771C0.780822 4.01566 1.4501 5.20548 2.52838 5.91194C1.89628 5.87476 1.26419 5.72603 0.74364 5.42857V5.46575C0.74364 7.36204 2.08219 8.92368 3.86693 9.2955C3.56947 9.36986 3.19765 9.44423 2.86301 9.44423C2.60274 9.44423 2.37965 9.40705 2.11937 9.36986C2.60274 10.9315 4.05284 12.047 5.76321 12.0841C4.42466 13.1252 2.75147 13.7573 0.92955 13.7573C0.594912 13.7573 0.297456 13.7202 0 13.683C1.71037 14.7984 3.75538 15.4305 5.9863 15.4305C13.1624 15.4305 17.0665 9.51859 17.0665 4.35029C17.0665 4.16438 17.0665 4.01566 17.0665 3.82975Z" fill="white"/>
</svg>
