<svg width="96" height="95" viewBox="0 0 96 95" fill="none" xmlns="http://www.w3.org/2000/svg">
<path d="M90.2523 0H4.75228C2.04596 0.0861113 -0.0794469 2.34754 0.0022801 5.054V89.946C-0.0794469 92.6525 2.04596 94.9139 4.75228 95H90.2523C92.9586 94.9139 95.084 92.6525 95.0023 89.946V5.054C95.084 2.34754 92.9586 0.0861113 90.2523 0ZM4.75228 3.16667H90.2523C91.2006 3.2698 91.8989 4.10223 91.8356 5.054V12.6667H3.16895V5.054C3.10565 4.10223 3.804 3.2698 4.75228 3.16667ZM90.2523 91.8333H4.75228C3.804 91.7302 3.10565 90.8978 3.16895 89.946V15.8333H91.8356V89.946C91.9109 90.9016 91.2064 91.7413 90.2523 91.8333Z" fill="white"/>
</svg>
