<svg width="73" height="37" viewBox="0 0 73 37" fill="none" xmlns="http://www.w3.org/2000/svg">
<path d="M61.7835 9.76708C61.7597 9.74169 61.7517 9.70837 61.7279 9.68456C61.6858 9.65292 61.6418 9.62378 61.5962 9.59728C47.3122 -3.19909 25.6879 -3.19909 11.4039 9.59728C11.3583 9.62378 11.3143 9.65292 11.2722 9.68456C11.2484 9.70837 11.2404 9.74169 11.2166 9.76708C4.11002 16.2 0.0388416 25.3268 0 34.9124C0 35.7889 0.710505 36.4994 1.58696 36.4994H71.4131C72.2896 36.4994 73.0001 35.7889 73.0001 34.9124C72.9612 25.3268 68.8901 16.2 61.7835 9.76708ZM40.9689 33.3255H32.0312C32.6936 31.4241 34.4866 30.1501 36.5 30.1501C38.5135 30.1501 40.3065 31.4241 40.9689 33.3255ZM44.2761 33.3255C43.8757 31.4162 42.7859 29.7213 41.2149 28.5646L49.0481 11.7778C49.2984 11.2626 49.2516 10.6525 48.9257 10.1815C48.5998 9.71046 48.0453 9.45161 47.475 9.50417C46.9046 9.55674 46.4069 9.91255 46.1726 10.4352L38.3409 27.2157C37.7389 27.0636 37.1209 26.9837 36.5 26.9776C32.7309 26.9824 29.4832 29.6335 28.7239 33.3255H3.21518C3.65339 25.6631 6.92836 18.4383 12.4021 13.0584L16.3346 16.9909C16.9573 17.5923 17.947 17.5837 18.5592 16.9716C19.1713 16.3594 19.1799 15.3696 18.5785 14.747L14.7587 10.924C20.4675 6.24887 27.5406 3.55496 34.9131 3.24786V9.5211C34.9131 10.3976 35.6236 11.1081 36.5 11.1081C37.3765 11.1081 38.087 10.3976 38.087 9.5211V3.24786C45.4594 3.55496 52.5326 6.24887 58.2414 10.924L54.4184 14.747C54.0058 15.1454 53.8404 15.7354 53.9856 16.2903C54.1309 16.8451 54.5642 17.2784 55.119 17.4237C55.6739 17.5689 56.2639 17.4035 56.6624 16.9909L60.5948 13.0584C66.0697 18.4378 69.3458 25.6627 69.7849 33.3255H44.2761Z" fill="#EB3F57"/>
</svg>
