<svg width="17" height="17" viewBox="0 0 17 17" fill="none" xmlns="http://www.w3.org/2000/svg">
<path d="M15.1786 0H1.82143C0.796875 0 0 0.834821 0 1.82143V15.1786C0 16.2031 0.796875 17 1.82143 17H7.02009V11.2321H4.62946V8.5H7.02009V6.45089C7.02009 4.09821 8.42411 2.77009 10.5491 2.77009C11.6116 2.77009 12.6741 2.95982 12.6741 2.95982V5.27455H11.4978C10.3214 5.27455 9.94196 5.99554 9.94196 6.75446V8.5H12.5603L12.1429 11.2321H9.94196V17H15.1786C16.1652 17 17 16.2031 17 15.1786V1.82143C17 0.834821 16.1652 0 15.1786 0Z" fill="white"/>
</svg>
